<?xml version="1.0" standalone="no"?>
<!DOCTYPE svg PUBLIC "-//W3C//DTD SVG 20010904//EN"
 "http://www.w3.org/TR/2001/REC-SVG-20010904/DTD/svg10.dtd">
<svg version="1.0" xmlns="http://www.w3.org/2000/svg"
 width="2500.000000pt" height="2500.000000pt" viewBox="0 0 2500.000000 2500.000000"
 preserveAspectRatio="xMidYMid meet">
<metadata>
Created by potrace 1.11, written by Peter Selinger 2001-2013
</metadata>
<g transform="translate(0.000000,2500.000000) scale(0.100000,-0.100000)"
fill="#000000" stroke="none">
<path d="M0 12500 l0 -12500 7500 0 7500 0 0 520 0 520 2480 0 2480 0 0 -520
0 -520 2520 0 2520 0 0 12500 0 12500 -12500 0 -12500 0 0 -12500z m15580
4970 l0 -4040 -750 0 -750 0 0 4040 0 4040 750 0 750 0 0 -4040z m4155 3945
c114 -15 242 -40 335 -65 l41 -11 -6 -137 c-34 -721 -30 -668 -56 -719 -52
-102 -157 -140 -424 -154 -201 -10 -290 -23 -405 -56 -209 -60 -342 -170 -436
-358 -85 -172 -114 -351 -114 -705 l0 -220 695 0 695 0 -2 -522 -3 -523 -667
-3 -668 -2 0 -2255 0 -2255 -750 0 -750 0 0 2258 0 2257 -167 29 c-282 47
-353 64 -429 100 -91 43 -155 101 -185 169 -24 51 -24 59 -27 400 l-3 347 406
0 405 0 0 208 c0 485 49 780 180 1090 91 215 203 384 364 551 337 347 800 545
1386 591 145 12 441 4 585 -15z m-14100 -2316 c170 -12 303 -31 455 -65 384
-86 782 -277 1059 -509 109 -92 135 -120 126 -137 -42 -74 -363 -564 -390
-595 -55 -65 -125 -94 -226 -95 -111 -1 -140 8 -369 112 -206 93 -416 169
-539 195 -128 27 -311 37 -440 25 -227 -21 -376 -78 -491 -187 -103 -97 -150
-204 -150 -344 0 -142 58 -248 188 -346 148 -111 310 -181 737 -317 451 -143
638 -213 871 -326 371 -178 594 -389 744 -702 111 -233 144 -548 94 -893 -26
-180 -70 -324 -149 -492 -164 -348 -432 -616 -798 -800 -282 -141 -567 -220
-928 -259 -215 -22 -667 -15 -854 14 -532 83 -1048 295 -1412 578 -45 36 -85
68 -88 74 -9 14 354 589 409 648 30 31 74 65 113 84 55 27 77 32 164 36 139 7
194 -10 376 -115 290 -168 506 -257 698 -289 136 -22 399 -22 523 0 116 20
249 69 324 120 205 136 298 395 218 608 -72 194 -318 344 -810 493 -478 146
-699 226 -940 341 -375 181 -597 388 -756 705 -85 170 -126 326 -145 555 -63
779 345 1409 1111 1714 361 144 813 204 1275 169z m5430 -14 c962 -124 1646
-674 1939 -1558 87 -265 126 -515 133 -867 8 -383 -14 -510 -101 -595 -77 -75
71 -69 -1848 -73 l-1728 -2 0 -26 c0 -46 30 -235 56 -352 136 -613 477 -972
1037 -1094 89 -19 132 -22 337 -22 279 0 350 10 580 86 123 41 216 83 455 204
257 129 312 153 375 164 102 17 179 8 255 -29 61 -30 72 -42 304 -332 189
-237 239 -305 232 -318 -20 -36 -275 -274 -371 -346 -319 -237 -718 -410
-1140 -495 -389 -78 -880 -100 -1240 -55 -912 114 -1622 593 -2024 1365 -176
339 -281 695 -333 1135 -24 205 -24 694 1 870 84 611 306 1112 674 1518 218
241 464 421 787 578 309 150 613 230 984 259 148 12 493 4 636 -15z m10262
-4006 c173 -23 345 -106 476 -228 88 -83 142 -157 193 -264 56 -119 76 -213
76 -362 1 -168 -17 -247 -89 -395 -52 -105 -65 -124 -157 -216 -87 -86 -115
-107 -202 -152 -162 -83 -226 -97 -434 -97 -152 0 -185 3 -253 23 -288 83
-506 294 -597 577 -34 106 -40 337 -11 457 39 163 122 309 239 419 209 198
466 278 759 238z m-425 -3605 c106 -17 182 -37 251 -66 44 -19 48 -23 42 -47
-14 -57 -22 -58 -167 -23 -175 42 -250 52 -388 52 -248 0 -464 -54 -656 -165
-88 -51 -246 -206 -309 -303 -130 -203 -217 -480 -244 -782 -6 -63 -11 -321
-11 -572 l0 -458 875 0 875 0 0 -55 0 -55 -875 0 -875 0 0 -2305 0 -2305 -65
0 -65 0 0 2304 0 2304 -172 6 c-95 3 -288 9 -428 12 -146 4 -260 11 -267 16
-7 6 -13 26 -13 44 l0 34 439 0 439 0 5 508 c3 291 10 541 16 587 99 703 420
1119 965 1250 189 46 418 53 628 19z m-15252 -2094 c330 -42 622 -154 910
-351 47 -32 108 -78 135 -103 l50 -46 -28 -25 c-43 -39 -65 -33 -152 40 -198
166 -534 313 -833 366 -150 27 -454 36 -613 20 -451 -47 -823 -211 -1110 -488
-188 -182 -289 -321 -404 -558 -141 -290 -221 -581 -267 -970 -20 -171 -17
-705 5 -880 124 -971 563 -1607 1277 -1846 240 -80 421 -104 729 -96 297 7
451 35 686 124 241 92 410 193 599 358 60 52 116 95 126 95 10 0 28 -9 41 -19
22 -18 22 -21 9 -46 -25 -46 -195 -201 -292 -265 -242 -160 -582 -287 -898
-335 -153 -23 -402 -30 -560 -16 -790 69 -1360 507 -1661 1273 -245 626 -275
1549 -73 2247 62 211 182 477 292 646 339 520 872 831 1516 885 120 10 396 5
516 -10z m4486 10 c362 -29 651 -118 924 -284 575 -351 912 -963 1006 -1828
23 -207 23 -638 0 -844 -42 -390 -126 -703 -265 -989 -309 -634 -825 -1001
-1541 -1097 -142 -19 -547 -16 -691 5 -760 112 -1302 551 -1584 1282 -274 710
-269 1768 12 2475 127 322 318 601 546 801 241 211 553 367 864 433 237 50
485 65 729 46z m5863 -16 c474 -69 813 -289 1032 -670 117 -204 186 -414 237
-719 14 -90 16 -279 19 -1847 l4 -1748 -60 0 -60 0 -4 1713 c-3 1273 -7 1735
-16 1802 -35 260 -102 498 -186 667 -125 248 -316 443 -550 560 -318 160 -773
203 -1184 112 -525 -117 -1019 -468 -1407 -1000 l-74 -102 0 -1876 0 -1876
-65 0 -65 0 2 2463 3 2462 27 3 c19 2 35 -5 52 -21 l24 -24 6 -349 c4 -192 10
-408 14 -481 l7 -132 76 102 c425 567 1013 915 1648 977 117 12 390 3 520 -16z"/>
<path d="M10470 18035 c-175 -29 -347 -94 -467 -177 -251 -172 -445 -521 -519
-930 l-6 -38 1162 0 1163 0 -6 98 c-34 547 -315 914 -791 1033 -107 27 -410
35 -536 14z"/>
<path d="M9628 9274 c-655 -79 -1172 -456 -1454 -1060 -59 -126 -145 -384
-179 -539 -114 -516 -114 -1125 1 -1643 49 -223 149 -493 246 -665 305 -538
793 -850 1436 -918 148 -15 514 -7 642 15 626 107 1086 448 1361 1010 349 712
375 1833 62 2626 -181 460 -489 800 -903 999 -206 98 -417 156 -659 181 -140
14 -411 11 -553 -6z"/>
</g>
</svg>
